<?xml version="1.0" encoding="utf-8"?>
<!-- Generator: Adobe Illustrator 23.0.3, SVG Export Plug-In . SVG Version: 6.00 Build 0)  -->
<svg version="1.1" id="Warstwa_1" xmlns="http://www.w3.org/2000/svg" xmlns:xlink="http://www.w3.org/1999/xlink" x="0px" y="0px"
	 viewBox="0 0 101.2577 113.9912" style="enable-background:new 0 0 101.2577 113.9912;" xml:space="preserve">
<style type="text/css">
	.st0{fill:#FFFFFF;}
	.st1{fill-rule:evenodd;clip-rule:evenodd;fill:#E2071B;}
</style>
<g>
	<rect x="8.3403" y="20.193" class="st0" width="79.2661" height="74.422"/>
	<path class="st1" d="M56.0704,64.4489c0-2.5732-0.4453-4.8984-1.3369-6.978c-0.8901-2.0781-2.1021-3.835-3.6372-5.2695
		c-1.5337-1.4356-3.3023-2.5489-5.3067-3.3408c-2.0048-0.7925-4.1206-1.188-6.3476-1.188c-2.3252,0-4.4907,0.458-6.4946,1.373
		c-2.0049,0.916-3.7251,2.1279-5.1592,3.6377c-1.4351,1.5098-2.5611,3.2798-3.3775,5.3081
		c-0.8169,2.0278-1.2251,4.1567-1.2251,6.3833c0,2.375,0.4331,4.5781,1.2994,6.6074c0.8657,2.0284,2.041,3.7735,3.5258,5.2334
		c1.4844,1.46,3.2163,2.6104,5.1958,3.4522c1.98,0.8408,4.0581,1.2617,6.2354,1.2617c2.4746,0,4.7383-0.4336,6.793-1.2998
		c2.0537-0.8652,3.81-2.041,5.2705-3.5254c1.4594-1.4844,2.5849-3.2295,3.3774-5.2344
		C55.6749,68.8659,56.0704,66.7263,56.0704,64.4489 M62.7955,42.9748h6.3477c0.0498-0.873,0.1123-1.8252,0.1865-2.8584
		c0.0752-1.0332,0.2734-2.0664,0.5976-3.0996c0.3233-1.0327,0.8081-2.0435,1.4561-3.0312c0.6475-0.9864,1.543-1.8589,2.688-2.6163
		c1.1455-0.7578,2.5893-1.3652,4.3315-1.8247c0.9595-0.2529,2.0401-0.4433,3.2403-0.5713v4.4927
		c-1.1065,0.1602-2.0362,0.4136-2.7925,0.7612c-1.3941,0.6431-2.4258,1.4468-3.0987,2.4102
		c-0.6723,0.9644-1.0708,1.9981-1.1948,3.1001c-0.125,1.1025-0.187,2.0894-0.187,2.9619v0.2754h7.273v5.2344h-7.273v36.7934h-5.227
		V48.2092h-6.3477C62.7955,46.4646,62.7955,44.7199,62.7955,42.9748z M18.3209,28.9885h5.1963l-0.0347,22.1743H23.63
		c1.1391-1.6343,2.3999-2.9814,3.7866-4.0464c1.3862-1.0644,2.7837-1.9058,4.1943-2.5239c1.4107-0.6192,2.7959-1.0401,4.1568-1.2622
		c1.3613-0.2227,2.5854-0.334,3.6743-0.334c3.3164,0,6.3223,0.5933,9.02,1.7808c2.6968,1.1879,4.9863,2.7719,6.8662,4.7514
		c1.8799,1.9795,3.3403,4.2437,4.3794,6.7925s1.5596,5.1846,1.5596,7.9053c0,2.9199-0.5449,5.6797-1.6338,8.2773
		c-1.0889,2.5977-2.5982,4.8613-4.5283,6.793c-1.9292,1.9287-4.231,3.4639-6.9038,4.6015
		c-2.6719,1.1387-5.5913,1.7071-8.7593,1.7071c-1.0386,0-2.2378-0.1113-3.5996-0.334c-1.3614-0.2217-2.7588-0.6309-4.1944-1.2246
		c-1.435-0.5947-2.8452-1.4219-4.2314-2.4873c-1.3867-1.0635-2.6475-2.4121-3.7866-4.0449h-0.1475l0.0322,7.4882h-5.1938V28.9885z
		 M4.3175,14.9851h91.3291c0,28.0068,0,56.0146,0,84.0214H4.3175V14.9851z"/>
</g>
</svg>
